<?xml version="1.0" encoding="UTF-8" standalone="no"?>
<svg
   width="390"
   height="844"
   viewBox="0 0 390 844"
   fill="none"
   version="1.1"
   id="svg1166"
   sodipodi:docname="lass_portrait.svg"
   inkscape:version="1.1.2 (0a00cf5339, 2022-02-04)"
   xmlns:inkscape="http://www.inkscape.org/namespaces/inkscape"
   xmlns:sodipodi="http://sodipodi.sourceforge.net/DTD/sodipodi-0.dtd"
   xmlns="http://www.w3.org/2000/svg"
   xmlns:svg="http://www.w3.org/2000/svg">
  <defs
     id="defs1170" />
  <sodipodi:namedview
     id="namedview1168"
     pagecolor="#ffffff"
     bordercolor="#666666"
     borderopacity="1.0"
     inkscape:pageshadow="2"
     inkscape:pageopacity="0.0"
     inkscape:pagecheckerboard="0"
     showgrid="false"
     inkscape:zoom="0.33385417"
     inkscape:cx="392.3869"
     inkscape:cy="299.53198"
     inkscape:window-width="1920"
     inkscape:window-height="1043"
     inkscape:window-x="0"
     inkscape:window-y="349"
     inkscape:window-maximized="1"
     inkscape:current-layer="layer1" />
  <g
     inkscape:groupmode="layer"
     id="layer1"
     inkscape:label="Layer 1">
    <path
       id="rect2263"
       style="fill:#e2e3e5;fill-opacity:1"
       d="M -96.784089,-480.5053 V 1140.5045 H 466.39169 V -480.5053 Z m 490.527339,55.20899 v 205.63867 l -61.45508,-49.5293 H -13.864168 v 99.0586 L 99.010833,-71.698655 H -45.217683 V -419.65373 l 63.96289,43.25976 313.542963,-0.62695 z M -45.217683,-71.374436 49.47177,-6.7982644 342.94833,104.79744 393.74325,75.957595 V 212.63338 l -370.609371,121 -68.351562,40.12304 V 193.82478 l 63.96289,28.83985 94.689453,-30.09375 V 51.506423 L 45.710051,25.803299 -45.217683,75.330642 Z M 144.78817,63.418533 V 182.53963 l 165.55274,-56.42579 v -0.62695 z M -20.135652,372.37752 H 105.28231 L -14.491121,484.60017 c -1.254754,7.94237 -2.298728,17.76727 -3.134766,29.46485 -0.418019,12.12256 -1.51e-4,23.61782 1.253907,34.48632 1.254754,10.03246 3.134462,19.63952 5.642578,28.83594 2.9268317,9.19643 6.8990863,17.34875 11.9160157,24.45508 5.016232,7.10633 11.0785223,12.7495 18.1855473,16.92969 7.107025,4.17323 15.67708,6.26172 25.710937,6.26172 15.050088,0 27.59114,-4.38175 37.625,-13.16016 10.033145,-8.36038 18.601962,-18.81098 25.708982,-31.35156 7.10703,-12.12256 13.17057,-25.0745 18.1875,-38.86914 5.43495,-13.79464 10.86778,-25.91587 16.30273,-36.35938 6.689,-15.88474 14.00615,-31.56063 21.94922,-47.02734 7.94306,-15.45975 16.93099,-29.2544 26.96485,-41.37696 10.45118,-12.12256 22.57506,-21.93854 36.37109,-29.46289 13.79603,-7.10633 30.09964,-10.66015 48.91211,-10.66015 20.48489,0 38.46152,4.5985 53.92969,13.79492 15.88627,9.61445 29.0544,22.98426 39.50586,40.12305 10.45146,17.55681 18.1864,38.24126 23.20312,62.06836 5.43474,24.23815 8.15235,51.20064 8.15234,80.87304 0,25.9172 -1.882,50.99118 -5.64453,75.23633 -3.76252,24.2451 -8.77791,44.3027 -15.04882,60.1875 H 244.49716 v -1.2539 L 368.03231,603.72322 v -0.62695 c 1.67222,-5.43425 2.7187,-10.65956 3.13672,-15.67578 v -10.03321 c 0,-2.92613 -0.21081,-6.0621 -0.6289,-9.40625 -0.41802,-10.0255 -1.88029,-20.05738 -4.38868,-30.08984 -2.09031,-10.03247 -5.6435,-19.22861 -10.66015,-27.58203 -4.59863,-7.94237 -10.66051,-14.42127 -18.18555,-19.4375 -7.52511,-5.01623 -16.93111,-7.52539 -28.21875,-7.52539 -9.61528,0 -17.97702,1.88236 -25.08398,5.64453 -7.10702,4.1802 -13.79612,9.61442 -20.06641,16.30273 -5.85296,7.09936 -11.28776,15.25084 -16.30469,24.44727 -4.59821,9.19642 -8.98778,19.01827 -13.16797,29.46875 -7.10703,16.7138 -14.63241,35.10694 -22.57617,55.17187 -7.52505,20.47598 -16.93153,39.49594 -28.21875,57.05274 -11.28791,17.5499 -25.29349,32.18016 -42.01562,43.88476 -16.30415,12.1225 -36.57897,18.17774 -60.826171,18.17774 -26.338004,0 -48.078565,-6.89095 -65.21875,-20.68555 -17.1408827,-13.3767 -30.93554,-30.5142 -41.386719,-51.4082 -10.03316,-20.4829 -16.932443,-43.04976 -20.695313,-67.71289 -4.180193,-24.66314 -6.060598,-47.85675 -5.642578,-69.59375 0,-10.03246 0.835736,-21.51992 2.507813,-34.47852 1.254058,-12.54058 3.135719,-25.70842 5.644531,-39.49609 2.508116,-13.37662 5.64338,-26.75424 9.40625,-40.13086 4.180193,-13.36965 8.986928,-25.90874 14.421875,-37.61328 z m 0,379.47656 H 105.28231 L -14.491121,864.07869 c -1.254754,7.9353 -2.298728,17.75839 -3.134766,29.46289 -0.418019,12.1226 -1.51e-4,23.61887 1.253907,34.48047 1.254754,10.0324 3.134462,19.64735 5.642578,28.84375 2.9268317,9.1964 6.8990863,17.34786 11.9160157,24.44726 5.016232,7.10625 11.0785223,12.74945 18.1855473,16.92965 7.107025,4.18019 15.67708,6.26959 25.710937,6.26959 15.050088,0 27.59114,-4.3896 37.625,-13.16799 10.033145,-8.36036 18.601962,-18.80315 25.708982,-31.34375 7.10703,-12.1225 13.17057,-25.08144 18.1875,-38.86914 5.43495,-13.7946 10.86778,-25.91669 16.30273,-36.36719 6.689,-15.88459 14.00615,-31.55478 21.94922,-47.02148 7.94306,-15.4667 16.93099,-29.25445 26.96485,-41.37695 10.45118,-12.1226 22.57506,-21.94445 36.37109,-29.46875 13.79603,-7.0994 30.09964,-10.65235 48.91211,-10.65235 20.48489,0 38.46152,4.59771 53.92969,13.78711 15.88627,9.6145 29.0544,22.99011 39.50586,40.12891 10.45146,17.5498 18.1864,38.2424 23.20312,62.0625 5.43474,24.2451 8.15235,51.19951 8.15234,80.87891 0,25.9102 -1.882,50.99117 -5.64453,75.23627 -3.76252,24.2382 -8.77791,44.3039 -15.04882,60.1817 H 244.49716 v -1.2539 L 368.03231,983.19392 v -0.62695 c 1.67222,-5.4342 2.7187,-10.65372 3.13672,-15.66992 V 956.8658 c 0,-2.9261 -0.21081,-6.06215 -0.6289,-9.40625 -0.41802,-10.0325 -1.88029,-20.06435 -4.38868,-30.08985 -2.09031,-10.0324 -5.6435,-19.22954 -10.66015,-27.58984 -4.59863,-7.9424 -10.66051,-14.4213 -18.18555,-19.4375 -7.52511,-5.0092 -16.93111,-7.51758 -28.21875,-7.51758 -9.61528,0 -17.97702,1.88038 -25.08398,5.64258 -7.10702,4.1732 -13.79612,9.60858 -20.06641,16.29687 -5.85296,7.10641 -11.28776,15.25663 -16.30469,24.45313 -4.59821,9.1964 -8.98778,19.01434 -13.16797,29.46484 -7.10703,16.7207 -14.63241,35.11207 -22.57617,55.16991 -7.52505,20.48299 -16.93153,39.49589 -28.21875,57.05279 -11.28791,17.5568 -25.29349,32.1891 -42.01562,43.8867 -16.30415,12.1225 -36.57897,18.1836 -60.826171,18.1836 -26.338004,0 -48.078565,-6.8987 -65.21875,-20.6934 -17.1408827,-13.3696 -30.93554,-30.5072 -41.386719,-51.4082 -10.03316,-20.4759 -16.932443,-43.04889 -20.695313,-67.70507 -4.180193,-24.6631 -6.060598,-47.86375 -5.642578,-69.59375 0,-10.0325 0.835736,-21.52887 2.507813,-34.48047 1.254058,-12.5405 3.135719,-25.70725 5.644531,-39.50195 2.508116,-13.3766 5.64338,-26.74645 9.40625,-40.12305 4.180193,-13.3766 8.986928,-25.91773 14.421875,-37.61523 z" />
  </g>
  <g
     inkscape:groupmode="layer"
     id="layer2"
     inkscape:label="Layer 2"
     style="display:inline" />
</svg>
